<?xml version="1.0" encoding="UTF-8" standalone="no"?>
<!-- Created with Inkscape (http://www.inkscape.org/) -->

<svg
   version="1.1"
   id="svg1"
   width="1685"
   height="823"
   viewBox="0 0 1685 823"
   sodipodi:docname="national-lottery-logo.svg"
   inkscape:export-filename="national-lottery-logo.png"
   inkscape:export-xdpi="96"
   inkscape:export-ydpi="96"
   inkscape:version="1.4 (e7c3feb1, 2024-10-09)"
   xmlns:inkscape="http://www.inkscape.org/namespaces/inkscape"
   xmlns:sodipodi="http://sodipodi.sourceforge.net/DTD/sodipodi-0.dtd"
   xmlns="http://www.w3.org/2000/svg"
   xmlns:svg="http://www.w3.org/2000/svg">
  <defs
     id="defs1" />
  <sodipodi:namedview
     id="namedview1"
     pagecolor="#ffffff"
     bordercolor="#000000"
     borderopacity="0.25"
     inkscape:showpageshadow="2"
     inkscape:pageopacity="0.0"
     inkscape:pagecheckerboard="0"
     inkscape:deskcolor="#d1d1d1"
     inkscape:zoom="0.62670623"
     inkscape:cx="842.5"
     inkscape:cy="411.67614"
     inkscape:window-width="2560"
     inkscape:window-height="1387"
     inkscape:window-x="0"
     inkscape:window-y="25"
     inkscape:window-maximized="1"
     inkscape:current-layer="g1" />
  <g
     inkscape:groupmode="layer"
     inkscape:label="Image"
     id="g1">
    <path
       style="fill:#000000"
       d="m 673.89616,584.4145 c -7.60944,-2.4114 -13.7655,-6.9515 -18.0412,-13.3053 -6.29013,-9.3475 -6.58182,-11.4405 -7.01953,-50.3677 l -0.39636,-35.25 h 7.57828 7.57829 l 0.008,27.75 c 0.008,31.0054 0.92639,42.2401 3.93263,48.1328 4.0503,7.9392 12.99967,11.931 24.13871,10.7667 11.0516,-1.1551 17.56318,-6.6175 19.84751,-16.6495 0.58403,-2.5649 1.03518,-18.5834 1.04911,-37.25 l 0.024,-32.75 h 7.55641 7.55642 l -0.30642,36.8756 -0.30641,36.8757 -4,7.844 c -4.77748,9.3688 -10.64517,14.3906 -20.35534,17.4212 -8.36799,2.6116 -20.43129,2.5726 -28.84414,-0.093 z m -288.0968,-1.0268 c -39.27486,-5.3006 -69.48914,-25.3095 -89.69069,-59.3962 -9.60059,-16.1994 -15.20717,-30.7031 -21.97902,-56.8576 -3.94664,-15.2428 -9.00323,-29.1742 -13.16971,-36.2838 -6.53547,-11.1519 -18.12842,-20.3829 -29.34755,-23.3683 -10.38451,-2.7633 -19.31317,-9.6357 -22.52053,-17.3341 -0.88079,-2.1141 -1.61411,-6.4943 -1.62961,-9.7337 -0.057,-11.9272 7.454,-21.9998 21.63339,-29.0112 25.73252,-12.7242 60.12281,-7.2757 86.30613,13.6736 4.56545,3.6528 8.44031,6.478 8.61078,6.2783 0.17048,-0.1998 2.23628,-6.2132 4.59067,-13.3632 3.76004,-11.4188 16.66836,-44.5402 23.0296,-59.0915 l 2.22577,-5.0914 -5.54317,-13.9086 c -15.99536,-40.1345 -19.50184,-69.30337 -10.62789,-88.40852 5.56047,-11.97139 13.53428,-17.94979 25.04276,-18.77595 5.62706,-0.40395 7.4853,-0.0868 12.23579,2.08801 9.3396,4.2758 17.2893,13.38267 25.66879,29.40515 l 4.29747,8.21722 7.1782,-6.81859 c 12.16359,-11.55422 23.35219,-15.14182 34.90096,-11.1909 5.46856,1.87083 11.92467,8.16342 14.72087,14.34801 2.0853,4.61224 2.36047,6.69731 2.33947,17.72707 -0.0229,12.0065 -0.18648,12.9737 -4.14442,24.5 -2.26634,6.6 -8.17051,20.9277 -13.12037,31.8394 l -8.99975,19.8393 5.11236,12.4422 5.11236,12.4421 3.03181,-0.7815 c 1.6675,-0.4298 6.85681,-0.7661 11.53181,-0.7472 6.75211,0.027 9.35019,0.482 12.63445,2.2114 9.93091,5.2293 15.28483,14.4128 16.10959,27.6327 l 0.51092,8.1896 5.12166,-2.534 c 10.13676,-5.0153 24.02053,-2.267 31.15296,6.1668 1.53455,1.8146 3.95567,5.7742 5.38026,8.7992 2.42673,5.153 2.58636,6.4149 2.52999,20 -0.0539,13.0034 -0.3406,15.3462 -2.77735,22.6989 -2.55242,7.7016 -2.64669,8.6113 -1.55449,15 1.70153,9.9529 1.48716,32.1965 -0.4125,42.8011 -9.42962,52.6398 -50.8245,94.8931 -102.88175,105.0153 -10.18984,1.9813 -32.7449,2.7123 -42.61002,1.3809 z m 30.56494,-16.9264 c 17.13985,-2.1492 37.36758,-9.9399 51.17553,-19.7102 14.94503,-10.575 29.51338,-27.266 37.29735,-42.7319 7.43573,-14.7739 11.03263,-28.3751 12.33598,-46.6466 l 0.66917,-9.3811 -4.98802,7.0202 c -7.94437,11.181 -15.47548,15.3662 -27.75867,15.4261 -8.23685,0.04 -15.11375,-2.7094 -20.19342,-8.0739 -3.42574,-3.6178 -7.24875,-11.1358 -7.28462,-14.3254 -0.0186,-1.6513 -0.60104,-1.3975 -3.77196,1.644 -12.39455,11.8886 -30.56642,11.623 -42.81522,-0.6258 -8.12295,-8.123 -9.87695,-13.7182 -9.89514,-31.5652 -0.0131,-12.816 0.30794,-15.6614 2.7639,-24.5 5.07515,-18.2647 13.7303,-35.4491 24.05218,-47.7545 l 5.85572,-6.981 -3.73499,-8.3823 c -2.05425,-4.6102 -3.8692,-8.3822 -4.03322,-8.3822 -0.16403,0 -2.91836,4.9496 -6.12073,10.9991 -3.20238,6.0496 -6.3278,10.9996 -6.94538,11 -1.85354,0 -10.37712,-4.0296 -10.37712,-4.9076 0,-1.3448 5.40933,-12.9679 20.98542,-45.0915 16.08783,-33.1791 19.96793,-42.3519 23.01545,-54.41 3.51601,-13.9118 2.17884,-22.12688 -4.40125,-27.03962 -13.74236,-10.26016 -39.3155,19.34792 -68.1904,78.94962 -21.75471,44.9046 -34.64267,79.618 -36.99715,99.651 l -0.65065,5.536 -5.77271,2.0771 -5.77271,2.077 -6.358,-7.6265 c -17.85128,-21.4129 -40.73699,-32.5661 -63.30446,-30.8509 -11.69807,0.8891 -19.81124,3.9144 -25.6878,9.5786 -4.2653,4.1112 -4.86574,5.1953 -4.86574,8.7849 0,5.269 3.34498,8.2421 12.71664,11.3031 10.89194,3.5575 18.28465,7.9774 25.87451,15.4697 12.1146,11.9589 18.8661,25.937 27.82822,57.615 7.74731,27.384 12.74706,38.9386 23.92399,55.2895 11.00574,16.1004 28.50754,31.2171 44.15356,38.1365 17.41931,7.7037 38.41338,10.7934 57.27174,8.4288 z m -7.79663,-29.899 c -7.31469,-1.0056 -17.2556,-4.3912 -23.63028,-8.0477 -11.49045,-6.5909 -23.36508,-20.236 -29.74763,-34.1828 -5.49698,-12.0118 -5.65174,-11.0996 2.50197,-14.7455 3.92683,-1.7558 7.2887,-3.0434 7.47082,-2.8612 0.18213,0.1821 2.18695,4.0389 4.45516,8.5706 7.1814,14.348 20.11076,25.9944 33.42258,30.106 15.94187,4.9239 30.38496,3.4196 51.77568,-5.3927 1.37667,-0.5672 2.20593,0.3893 4.1512,4.7879 4.3087,9.7427 4.55958,8.9543 -4.10644,12.9049 -4.2708,1.9469 -9.11509,4.0281 -10.76509,4.625 -10.39758,3.761 -25.70498,5.5859 -35.52797,4.2355 z m 87.05285,-83.3208 c 13.57792,-8.1172 24.98476,-33.7296 24.96954,-56.0654 -0.007,-10.4388 -1.37591,-15.2661 -5.4975,-19.3877 -3.72991,-3.7299 -8.50166,-4.3801 -13.43256,-1.8302 -5.07971,2.6268 -13.8517,13.4788 -18.94751,23.4404 -7.6459,14.9466 -10.43118,24.6236 -10.53234,36.5929 -0.0977,11.556 1.23582,15.8094 5.8358,18.6145 4.86816,2.9686 11.17394,2.4798 17.60457,-1.3645 z m -9.02488,-8.4563 c -5.44263,-1.9895 -8.85203,-9.182 -7.00516,-14.7781 3.12669,-9.4739 16.28839,-11.0776 21.2991,-2.5952 5.67424,9.6057 -3.85593,21.189 -14.29394,17.3733 z m -50.08044,-1.2707 c 11.68563,-3.3513 21.77723,-17.5102 31.37716,-44.023 5.43205,-15.0021 7.7052,-25.3991 7.6977,-35.2079 -0.007,-9.4909 -1.38033,-14.1514 -5.49066,-18.6365 -3.12456,-3.4095 -3.74233,-3.6549 -9.17692,-3.6452 -7.49828,0.013 -11.57417,2.0636 -18.9531,9.5335 -15.14992,15.3368 -26.33978,42.8171 -26.65347,65.4561 -0.0773,5.5794 0.42255,11.9142 1.13077,14.3303 1.63674,5.5838 6.70469,11.097 11.16488,12.1457 4.85533,1.1417 5.08271,1.1429 8.90364,0.047 z m -6.61523,-13.9205 c -6.48073,-4.0703 -8.40116,-9.8345 -5.47807,-16.4427 4.77244,-10.7888 20.21766,-10.1429 24.1034,1.0081 1.27912,3.6707 1.24735,4.5801 -0.30173,8.6363 -0.95227,2.4934 -2.91588,5.3097 -4.36359,6.2582 -4.08041,2.6736 -10.18688,2.9099 -13.96001,0.5401 z M 378.50618,246.1396 c 2.80333,-4.6411 7.19783,-11.2921 9.76557,-14.7801 l 4.66861,-6.3419 -5.38023,-10.2758 c -6.10534,-11.66073 -12.56957,-20.40274 -17.26454,-23.34798 -7.49428,-4.7013 -16.01276,0.4861 -19.28555,11.74411 -3.45248,11.87612 -0.12014,33.41327 9.15476,59.16787 l 3.71446,10.3143 4.76499,-9.0211 c 2.62074,-4.9616 7.05861,-12.8184 9.86193,-17.4594 z m 198.75613,337.6852 c -0.36667,-0.3667 -0.66667,-22.6417 -0.66667,-49.5 v -48.8333 h 31.5 31.5 v 6.5 6.5 h -24 -24 v 14.4774 14.4775 l 18.25,0.2725 18.25,0.2726 v 6.5 6.5 l -18.25,0.2725 -18.25,0.2726 v 21.4774 21.4775 h -6.83333 c -3.75834,0 -7.13334,-0.3 -7.5,-0.6667 z m 165.04095,0.041 c -0.38919,-0.3892 -0.70762,-22.6827 -0.70762,-49.541 v -48.8333 l 7.75,0.031 7.75,0.031 26,37.354 26,37.354 0.26203,-37.3849 0.26202,-37.3849 h 7.4974 7.4974 l -0.25943,49.25 -0.25942,49.25 H 816.664 809.23236 L 783.164,546.6959 757.09564,509.4 l -0.5,37.2959 -0.5,37.2958 -6.54238,0.2909 c -3.5983,0.1601 -6.8608,-0.028 -7.25,-0.4166 z m 95.29238,-48.8474 v -49.7086 l 24.25,0.4131 c 21.66081,0.3691 24.96965,0.6497 30.99015,2.628 18.80474,6.1793 29.80225,20.9109 31.43711,42.1113 1.6005,20.7549 -7.85807,39.6531 -23.67726,47.3072 -10.4837,5.0725 -15.81474,5.9283 -40.25,6.4614 l -22.75,0.4962 z m 50,33.0879 c 14.77665,-5.5718 21.93329,-18.0568 20.70173,-36.1148 -0.76973,-11.2863 -3.0297,-16.9584 -9.22552,-23.1543 -7.12911,-7.1291 -14.17532,-9.2972 -32.72621,-10.0698 l -13.75,-0.5727 v 36.2552 36.2553 l 15.25,-0.4511 c 10.99747,-0.3252 16.50484,-0.9242 19.75,-2.1478 z M 610.70797,462.9109 c -23.01354,-6.1891 -38.14367,-26.7926 -38.09755,-51.8795 0.0399,-21.6754 10.621,-40.2166 27.87772,-48.8498 3.89529,-1.9487 9.66355,-4.079 12.81836,-4.7339 8.26371,-1.7155 26.16488,-0.724 34.35154,1.9027 7.49741,2.4055 16.30402,8.3106 20.39679,13.6765 l 2.79726,3.6674 -8.85737,8.8986 c -4.87156,4.8942 -9.13102,8.8986 -9.46546,8.8986 -0.33445,0 -2.49623,-1.7962 -4.80396,-3.9915 -5.93873,-5.6493 -9.61836,-7.2654 -17.74279,-7.7925 -11.76537,-0.7633 -20.14847,3.5857 -25.10607,13.0246 -2.42231,4.6119 -2.76238,6.3674 -2.76238,14.2594 0,7.8361 0.34807,9.6621 2.69163,14.1197 5.00699,9.5238 12.05771,13.5548 23.78995,13.6012 9.22024,0.036 13.31517,-1.5648 20.00537,-7.8227 l 5.04771,-4.7216 3.22346,2.8925 c 8.53759,7.6609 14.72346,13.9805 14.72346,15.0419 0,0.6454 -2.71537,3.6875 -6.03415,6.7601 -6.64841,6.1553 -17.39448,11.7991 -25.76507,13.5319 -7.31633,1.5145 -22.60373,1.2604 -29.08845,-0.4836 z m 103.52175,0.055 c -22.82912,-5.7609 -37.99961,-24.8428 -39.33267,-49.4739 -0.94094,-17.386 4.58769,-31.9897 16.23558,-42.8858 10.54937,-9.8684 21.60577,-14.0821 37.00291,-14.1024 15.76251,-0.021 28.63282,4.9538 38.41825,14.8488 10.29597,10.4113 15.05029,22.7793 15.02998,39.0995 -0.0177,14.2593 -3.53916,25.0012 -11.57884,35.3205 -4.49612,5.771 -14.96278,12.9972 -22.90929,15.8167 -7.87451,2.7939 -24.4915,3.4899 -32.86592,1.3767 z m 25.34321,-27.4624 c 8.98058,-4.5815 13.53244,-14.3066 12.81463,-27.3786 -0.50327,-9.165 -2.55851,-14.1601 -7.95429,-19.3323 -11.5144,-11.0372 -30.77759,-7.2661 -37.91222,7.422 -1.88323,3.877 -2.33044,6.4735 -2.37298,13.7773 -0.0461,7.9146 0.28858,9.6945 2.77518,14.7584 3.14304,6.4006 7.46703,10.237 13.89418,12.3275 5.35592,1.742 13.61369,1.0489 18.7555,-1.5743 z m 327.02267,27.5555 c -12.2495,-3.4139 -21.2988,-10.707 -26.151,-21.0761 -4.3504,-9.2964 -4.9309,-15.6956 -4.6257,-50.9909 l 0.2767,-32 13.6689,-0.2777 13.6688,-0.2777 0.3351,33.7777 c 0.3255,32.8119 0.3995,33.8986 2.5909,38.0071 5.795,10.8644 23.4941,10.4129 28.5924,-0.7294 0.7524,-1.6445 1.315,-14.1352 1.6439,-36.5 l 0.5,-34 h 14 14 l 0.2895,30.5 c 0.3174,33.4383 -0.5064,43.5177 -4.2198,51.6286 -4.7268,10.3249 -15.1657,18.8468 -26.9199,21.9764 -6.315,1.6815 -21.5553,1.6605 -27.6498,-0.038 z m -275.32431,-1.317 c -0.24331,-0.4125 0.61532,-22.8 1.90807,-49.75 1.29275,-26.95 2.36527,-50.0125 2.38337,-51.25 0.0325,-2.2186 0.21805,-2.25 13.29738,-2.25 h 13.26447 l 11.26985,20.3558 c 6.19842,11.1957 11.83255,21.1253 12.52029,22.0659 1.0855,1.4845 2.74554,-1.0356 12.58556,-19.1058 6.23432,-11.4488 11.78628,-21.3784 12.33769,-22.0659 0.70799,-0.8828 4.76505,-1.25 13.80816,-1.25 h 12.8056 l 0.54988,5.25 c 0.44273,4.227 4.63091,92.9597 4.60199,97.5 -0.006,0.9397 -3.46298,1.25 -13.9285,1.25 h -13.92055 l -0.51919,-2.75 c -0.28555,-1.5125 -0.78604,-12.2 -1.11219,-23.75 -0.32615,-11.55 -0.86672,-23.4554 -1.20127,-26.4564 l -0.60828,-5.4564 -8.38559,16.748 -8.38559,16.7479 -7.7234,-0.2915 -7.7234,-0.2916 -9.63664,-16.7971 -9.63663,-16.797 -0.64451,23.797 c -0.35448,13.0884 -0.89968,26.3846 -1.21155,29.5471 l -0.56704,5.75 h -12.8428 c -7.06354,0 -13.04187,-0.3375 -13.28518,-0.75 z m 122.02276,0 c -0.52033,-0.93 4.12748,-100.2736 4.7721,-102 0.34012,-0.9109 3.95192,-1.25 13.31478,-1.25 h 12.84806 l 11.43333,20.6384 c 6.28832,11.3512 11.91441,21.302 12.5024,22.1129 0.84451,1.1646 3.57519,-3.1181 12.99999,-20.3885 l 11.9309,-21.8628 13.19929,-0.2787 13.1993,-0.2787 0.5007,3.2787 c 0.4212,2.758 4.6641,93.7715 4.6165,99.0287 -0.014,1.5819 -1.3498,1.75 -13.9023,1.75 h -13.88639 l -0.5681,-4.25 c -0.3125,-2.3375 -0.8723,-14.375 -1.2441,-26.75 -0.3717,-12.375 -0.9962,-23.373 -1.3877,-24.4399 -0.5482,-1.4941 -2.5985,1.7903 -8.9212,14.2911 l -8.2094,16.231 -7.66695,-0.2911 -7.667,-0.2911 -9.53131,-16.7113 -9.53131,-16.7113 -0.78867,26.2113 c -0.43377,14.4162 -1.01666,27.6738 -1.29531,29.4613 l -0.50665,3.25 h -12.89567 c -7.09261,0 -13.0845,-0.3375 -13.31529,-0.75 z m 226.30155,-51.2517 v -52.0581 l 12.6982,0.2799 12.6981,0.2799 19.0519,27.71 19.0518,27.71 0.2656,-27.9881 0.2656,-27.9882 13.7344,0.2782 13.7344,0.2781 v 51.5 51.5 h -11.9355 -11.9354 l -19.5646,-28.1378 -19.5645,-28.1378 -0.5,28.1378 -0.5,28.1378 -13.75,0.2782 -13.75,0.2782 z m 107,0 v -52 h 14 14 v 52 52 h -14 -14 z m 71,12.5 v -39.5 h -16.0308 -16.0308 l 0.2808,-12.25 0.2808,-12.25 45.25,-0.2602 45.25,-0.2602 v 12.5102 12.5102 h -15.5 -15.5 v 39.5 39.5 h -14 -14 z m 99.6667,38.8333 c -0.3667,-0.3667 -0.6667,-9.7594 -0.6667,-20.8728 v -20.2061 l -17.5272,-29.6164 c -9.64,-16.2891 -17.7882,-30.2963 -18.107,-31.1272 -0.502,-1.308 1.5183,-1.5108 15.0518,-1.5108 h 15.6316 l 2.5413,4.25 c 1.3977,2.3375 5.9445,10.4974 10.1041,18.1332 l 7.5628,13.8832 9.4448,-18.1332 9.4448,-18.1332 h 14.9265 c 10.4705,0 14.9265,0.3389 14.9265,1.1353 0,0.6244 -8.1,14.7632 -18,31.4194 l -18,30.2841 v 20.5806 20.5806 h -13.3333 c -7.3334,0 -13.6334,-0.3 -14,-0.6667 z M 474.47712,224.0446 c -2.83214,-1.60119 -5.88148,-7.04771 -5.88148,-10.50511 0,-5.66202 6.51026,-12.03774 12.29966,-12.04547 4.11058,-0.005 8.44066,2.59341 10.29479,6.1789 2.28396,4.4167 1.39016,11.28729 -1.89584,14.5733 -3.1253,3.12528 -10.8185,4.05898 -14.81713,1.79838 z m 12.31876,-4.60071 c 2.62226,-2.62227 2.96406,-3.5537 2.45508,-6.69022 -1.20234,-7.4091 -8.04084,-10.33421 -13.4733,-5.76309 -2.58872,2.17826 -3.18202,3.41521 -3.18202,6.63405 0,8.33236 8.28993,11.72957 14.20024,5.81926 z m -10.20024,-5.95361 c 0,-5.96263 0.0182,-6 2.91821,-6 1.60502,0 3.63002,0.27314 4.5,0.60699 1.7384,0.66708 2.16616,4.91381 0.59291,5.88614 -0.60631,0.37472 -0.36838,1.55818 0.61501,3.05902 1.48545,2.26709 1.478,2.44785 -0.10083,2.44785 -0.93759,0 -2.54938,-1.0125 -3.58174,-2.25 l -1.87702,-2.25 -0.0333,2.25 c -0.0195,1.31855 -0.65424,2.25 -1.53327,2.25 -1.16667,0 -1.5,-1.33333 -1.5,-6 z m 6,-2 c 0,-0.55 -0.675,-1 -1.5,-1 -0.825,0 -1.5,0.45 -1.5,1 0,0.55 0.675,1 1.5,1 0.825,0 1.5,-0.45 1.5,-1 z"
       id="path1" />
  </g>
</svg>
